<svg xmlns="http://www.w3.org/2000/svg" viewBox="0 0 100 100"><defs><style>.cls-1{fill:none;}.cls-2{fill:#0d367a;}.cls-3{fill:#040000;}</style></defs><g id="图层_2" data-name="图层 2"><g id="图层_1-2" data-name="图层 1"><rect class="cls-1" width="100" height="100"/><g id="组_3873" data-name="组 3873"><path id="路径_32671" data-name="路径 32671" class="cls-2" d="M40.77,94c-.78,0-1.55-.05-2.32-.1-14.13-1.34-23.75-13.3-22.93-28.4C17.27,33.92,44.89,16.3,46.08,15.58a1.3,1.3,0,0,1,1.49.05A1.3,1.3,0,0,1,48,17l-.31,1.08C46.65,22.38,46.13,29.59,50,40A98.08,98.08,0,0,0,60.71,58s0,.1.1.15v0l0,.05A22.52,22.52,0,0,1,64.57,73,23.56,23.56,0,0,1,40.76,94Zm2.52-73.12c-7.11,5.72-23.85,21.49-25.14,44.83-.88,15.46,9.68,24.58,20.56,25.61.72,0,1.44.1,2.11.1A20.85,20.85,0,0,0,61.9,72.88a19.69,19.69,0,0,0-3.46-13.29c0-.06,0-.11-.1-.16v0l-.05-.05a99.44,99.44,0,0,1-10.77-18.4,43.4,43.4,0,0,1-3.14-19.48l.15-1.7Z"/><path class="cls-2" d="M40.77,94.24c-.78,0-1.57,0-2.33-.1-14.25-1.35-24-13.4-23.15-28.64C17.07,33.35,45.67,15.56,46,15.38a1.92,1.92,0,0,1,.77-.24,1.79,1.79,0,0,1,1,.3,1.52,1.52,0,0,1,.56,1.64L48,18.16c-1.08,4.26-1.55,11.49,2.31,21.71a97.23,97.23,0,0,0,10.64,18s.05.08.07.11L61,58v.07A22.81,22.81,0,0,1,64.8,73.05,23.69,23.69,0,0,1,41.16,94.24h-.39ZM40,93.76h1.14A23.24,23.24,0,0,0,64.34,73a22.4,22.4,0,0,0-3.67-14.64l-.09-.08v-.08l0,0A98.92,98.92,0,0,1,49.83,40C45.92,29.7,46.41,22.37,47.5,18L47.81,17a1.06,1.06,0,0,0-.38-1.15,1.34,1.34,0,0,0-.69-.21,1.54,1.54,0,0,0-.55.18c-.28.17-28.67,17.83-30.44,49.75-.82,15,8.74,26.82,22.72,28.15l1.56.08Zm1.17-2.09h-.37c-.68,0-1.42,0-2.13-.1-11-1-21.66-10.26-20.77-25.85C19.2,42.38,36,26.47,43.14,20.71l1.68-1.53-.21,2.29a43.33,43.33,0,0,0,3.12,19.37A99.83,99.83,0,0,0,58.48,59.19l.09.1v.06l0,.06A20,20,0,0,1,62.13,72.9,21,21,0,0,1,41.19,91.67Zm3.06-71.34-.81.74c-7.11,5.72-23.78,21.52-25.06,44.66C17.51,81,28,90.08,38.73,91.1c.7.05,1.43.1,2.09.1h.37A20.52,20.52,0,0,0,61.67,72.86a19.48,19.48,0,0,0-3.42-13.14.29.29,0,0,1-.06-.11l-.07-.07v-.07A100.33,100.33,0,0,1,47.31,41a43.79,43.79,0,0,1-3.16-19.59Z"/><path id="路径_32672" data-name="路径 32672" class="cls-3" d="M36,82.67c-6.19,0-11.13-7.94-11.13-14.48a.9.9,0,0,1,1.8,0c0,6.28,4.69,12.67,9.33,12.67a.87.87,0,0,1,.62.26,1,1,0,0,1,.25.62.9.9,0,0,1-.8,1ZM73.13,40.78A10.55,10.55,0,0,1,62.47,31.4a9.83,9.83,0,0,1,1.75-6.75,43.16,43.16,0,0,0,4.58-7.78,15.26,15.26,0,0,0,1-9.33A1.44,1.44,0,0,1,70,6.35,1.71,1.71,0,0,1,70.81,6,.46.46,0,0,1,71,6c.51.31,12.68,7.94,13.45,22A11.61,11.61,0,0,1,74.22,40.72,8,8,0,0,1,73.13,40.78Zm-7.41-15.1a8.35,8.35,0,0,0-1.44,5.51A8.79,8.79,0,0,0,73.19,39a4.63,4.63,0,0,0,.83,0,9.71,9.71,0,0,0,8.67-10.65c0-.06,0-.11,0-.17A27.21,27.21,0,0,0,73.14,9.91L72,8.88l-.06,1.55a20.36,20.36,0,0,1-1.44,7,41.42,41.42,0,0,1-4.74,8l-.05.05v.15Z"/><path class="cls-3" d="M36,83.25c-6.49,0-11.71-8.24-11.71-15.06a1.41,1.41,0,0,1,.45-1,1.38,1.38,0,0,1,1.05-.42,1.5,1.5,0,0,1,1.46,1.38c0,6,4.42,12.13,8.75,12.13h0a1.42,1.42,0,0,1,1,.44,1.53,1.53,0,0,1,.42,1,1.4,1.4,0,0,1-.33,1,1.42,1.42,0,0,1-1,.53ZM25.75,67.88a.31.31,0,0,0-.32.32c0,6.29,4.7,13.89,10.55,13.89v.58l0-.58a.33.33,0,0,0,.21-.12.3.3,0,0,0,.07-.23.37.37,0,0,0-.11-.27.23.23,0,0,0-.18-.08h0c-5,0-9.91-6.56-9.91-13.25a.31.31,0,0,0-.31-.26ZM36,82.09l0,.58ZM73.3,41.36H73a11.1,11.1,0,0,1-11.06-9.9,10.46,10.46,0,0,1,1.86-7.15,43,43,0,0,0,4.53-7.68,14.7,14.7,0,0,0,.94-9A2,2,0,0,1,69.58,6l.09-.09a2.27,2.27,0,0,1,1-.49,1,1,0,0,1,.59.12c.15.08,13,7.94,13.75,22.47A12.23,12.23,0,0,1,74.28,41.3,7.93,7.93,0,0,1,73.3,41.36Zm-.17-1.16h0a8.37,8.37,0,0,0,1-.05,11.08,11.08,0,0,0,9.74-12c-.73-13.36-12-20.83-13.09-21.51a1,1,0,0,0-.34.17.82.82,0,0,0-.11.65,15.81,15.81,0,0,1-1,9.69A42.8,42.8,0,0,1,64.68,25,9.27,9.27,0,0,0,63,31.33,9.93,9.93,0,0,0,73,40.2h.18Zm.2-.65H73a9.34,9.34,0,0,1-9.29-8.29,9.06,9.06,0,0,1,1.43-5.74v-.23l.17-.17A40.7,40.7,0,0,0,70,17.2a19.93,19.93,0,0,0,1.4-6.79l.09-2.79,2.07,1.86A27.6,27.6,0,0,1,83.25,28l0,.17A10.31,10.31,0,0,1,74.08,39.5,6,6,0,0,1,73.33,39.55Zm-.15-1.16a4.53,4.53,0,0,0,.75,0,9.16,9.16,0,0,0,8.19-10l0-.16a26.48,26.48,0,0,0-9.33-17.82l-.24-.21v.31A20.71,20.71,0,0,1,71,17.65a43.18,43.18,0,0,1-3.8,6.77l.05,0L66.2,26a7.89,7.89,0,0,0-1.35,5.14A8.22,8.22,0,0,0,73.18,38.39Z"/></g></g></g></svg>